<?xml version="1.0" standalone="no"?>
<!DOCTYPE svg PUBLIC "-//W3C//DTD SVG 20010904//EN"
 "http://www.w3.org/TR/2001/REC-SVG-20010904/DTD/svg10.dtd">
<svg version="1.0" xmlns="http://www.w3.org/2000/svg"
 width="300.000000pt" height="300.000000pt" viewBox="0 0 300.000000 300.000000"
 preserveAspectRatio="xMidYMid meet">
<metadata>
Created by potrace 1.11, written by Peter Selinger 2001-2013
</metadata>
<g transform="translate(0.000000,300.000000) scale(0.100000,-0.100000)"
fill="#000000" stroke="none">
<path d="M1271 2784 c-46 -8 -132 -30 -190 -49 -694 -233 -1070 -972 -846
-1665 147 -454 523 -790 998 -892 135 -28 369 -31 501 -5 513 103 908 467
1040 960 197 734 -258 1474 -1009 1643 -100 23 -386 27 -494 8z m432 -119
c213 -45 386 -221 432 -440 8 -38 15 -88 15 -110 0 -134 -68 -292 -169 -395
-152 -154 -376 -207 -578 -139 l-72 25 -19 -36 c-11 -19 -32 -57 -46 -83 l-25
-49 59 -55 c66 -61 124 -163 136 -238 l6 -45 178 0 178 0 17 53 c22 70 46 106
101 157 64 59 123 83 219 88 65 3 91 0 140 -18 82 -31 174 -122 204 -203 28
-77 28 -177 0 -252 -27 -73 -104 -156 -177 -192 -50 -25 -68 -28 -152 -28 -84
0 -102 3 -152 28 -92 45 -158 128 -194 245 -2 9 -48 12 -183 12 l-179 0 -7
-41 c-4 -22 -22 -70 -40 -107 -124 -247 -438 -330 -669 -177 -65 43 -96 76
-140 148 -37 62 -66 167 -66 239 0 161 108 335 251 407 102 51 158 57 348 38
20 -2 30 10 69 83 l45 85 -57 59 c-133 139 -185 340 -136 530 28 109 63 169
150 257 140 142 319 195 513 154z"/>
<path d="M1214 2053 c8 -68 41 -142 91 -200 46 -54 154 -109 233 -118 193 -22
382 128 400 317 l5 58 -368 0 -368 0 7 -57z"/>
<path d="M956 1064 l-199 -195 33 -34 c76 -79 213 -101 316 -50 66 33 128 101
150 167 31 94 4 219 -61 284 -13 13 -28 24 -32 24 -4 -1 -98 -89 -207 -196z"/>
<path d="M1991 1111 c-18 -33 -13 -110 10 -150 31 -56 81 -85 144 -85 53 1
114 26 122 51 4 11 -218 186 -251 199 -8 3 -19 -3 -25 -15z"/>
</g>
</svg>
